<?xml version="1.0" encoding="UTF-8"?>
<svg id="Layer_2" data-name="Layer 2" xmlns="http://www.w3.org/2000/svg" viewBox="0 0 179.67 155.51">
  <defs>
    <style>
      .cls-1 {
        stroke: #d1ab2e;
        stroke-miterlimit: 10;
        stroke-width: .25px;
      }

      .cls-1, .cls-2 {
        fill: none;
      }

      .cls-3 {
        fill: #d1ab2e;
      }
    </style>
  </defs>
  <g id="Layer_1-2" data-name="Layer 1">
    <path class="cls-3" d="m178.79,11.75c-1.28-1.44-3.37-1.78-5.03-.85l-11.19,6.31-25.1,14.15-18.66,10.51h-.01l-.15.09-1.95,1.19-1.8,1.1c-1.43.87-1.39,2.97.07,3.79l17.38,9.73.02.02c1.27.95,3.49,3.07,2.44,5.82h0s-.01.04-.02.05c0,0-.01,0-.01.02-.01.03-.04.08-.09.15l.03-.06c-.36.54-.78.94-1.23,1.22-.07.03-.16.07-.26.12-1.44.72-3.56.14-5.14-.51l-11.65-6.04-6.34-3.29-2.51-1.3-2.38-1.24-8.17-4.24V12.82c.08-.55.26-1.07.51-1.54,0-.01.01-.02.01-.03.07-.13.15-.26.24-.38.78-1.15,2.04-1.95,3.5-2.1h19.22l4.72,5.4,9.19-5.71.69-.43c.65-.4,1.24-.94,1.59-1.62.32-.61.5-1.3.5-2.04,0-2.42-1.96-4.38-4.39-4.38H46.62c-1.21,0-2.31.49-3.11,1.28-.79.8-1.28,1.89-1.28,3.1,0,.01,0,.02,0,.04.01,1.49.89,2.83,2.15,3.61l.78.48,9.12,5.67,4.73-5.41h19c2.66,0,4.82,2.14,4.82,4.79v34.87l-8.28,4.3-23.53,12.22s-.02,0-.03.01c-1.47.55-4.42,1.26-6.16-1.09,0-.01-.01-.02-.02-.03l-.13-.26h0s-.02-.05-.02-.05c-.33-.77-.86-2.9,1.91-5.06h.01s.61-.35.61-.35l17.52-9.81c1.46-.82,1.5-2.92.07-3.79l-1.8-1.1-1.95-1.19-.15-.09h0l-18.66-10.51-25.1-14.15-11.19-6.31c-1.66-.93-3.75-.6-5.03.84-.48.54-.76,1.14-.85,1.76-.21,1.33.45,2.69,1.82,3.46l.43.23.03.02.27.16.28.15,39.34,22.16,6.25,3.52c2.19,1.23,2.19,4.4-.01,5.63l-6.24,3.5-2.13,1.19-11.63,6.5,24.87,40.71,1.26-.84,11.33-7.04,2.07-1.29,6.08-3.77c2.14-1.33,4.91.19,4.94,2.72l.05,7.16.38,45.15v.64s0,.52,0,.52c.01,1.64.97,2.93,2.33,3.33.54.16,1.14.18,1.77.04,1.87-.43,3.17-2.1,3.16-4l-.28-67.19c-.01-2.29-2.42-3.75-4.45-2.72l-18.96,9.7-.31.17v-.02s-.01,0-.02.01c-.02.01-.07.03-.14.06-.06.03-.12.05-.18.08-.03.01-.06.02-.1.04-.11.04-.23.09-.36.13-.01,0-.02,0-.03.01-.08.03-.16.05-.25.08-.62.18-1.45.36-2.39.38-1.17-.02-2.37-.42-3.27-1.62h-.01s-.02-.04-.02-.04c0,0,0-.01-.01-.02l-.12-.24v-.03c-.33-.73-.86-2.76,1.61-4.86l25.5-13.23,6.97-3.62,7.16,3.72,29.57,15.35-13.95,21.39v.04s-5.13,0-5.13,0v15.26h9.35l.44-.77,5.22-8.69,2.14-3.56,9.15-15.2.87-1.45,1.32-2.13,7.43-12.02.02-.04,3.95-6.38,3.82-6.18-11.64-6.51-2.13-1.19-6.24-3.5c-2.2-1.23-2.21-4.4-.01-5.63l6.25-3.52,39.34-22.16.28-.15.27-.16.45-.25c2-1.11,2.5-3.51.98-5.21ZM48.51,57.25l-1.03.59c.31-.2.65-.4,1.03-.59Z"/>
    <polygon class="cls-3" points="177.35 0 161.94 8.77 146.54 17.53 138.21 22.27 134.95 24.13 117.44 34.09 108.59 39.13 108.59 17.53 117.44 17.53 117.44 25.73 130.07 18.54 131.85 17.53 138.21 13.91 147.24 8.77 162.66 0 177.35 0"/>
    <polygon class="cls-3" points="2.66 .06 18.07 8.83 33.47 17.59 41.8 22.33 45.06 24.19 62.57 34.15 71.42 39.19 71.42 17.59 62.57 17.59 62.57 25.79 49.94 18.6 48.16 17.59 41.8 13.97 32.77 8.83 17.35 .06 2.66 .06"/>
    <path class="cls-3" d="m48.51,57.25l-1.03.59c.31-.2.65-.4,1.03-.59Z"/>
    <polygon class="cls-3" points="38.85 46.19 24.49 54.19 10.65 31.18 38.85 46.19"/>
    <polygon class="cls-3" points="140.38 45.79 154.9 53.88 168.75 30.78 140.38 45.79"/>
    <g>
      <path class="cls-3" d="m134.81,63.62s-.01.03-.02.04c0,0-.01,0-.01.02-.01.03-.04.08-.09.15l.03-.06h0s.08-.15.08-.15h.01Z"/>
      <path class="cls-3" d="m134.8,63.62s0,.03-.01.04c0,0-.01,0-.01.02-.01.03-.04.08-.09.15l.03-.06h0s.08-.15.08-.15Z"/>
    </g>
    <path class="cls-3" d="m48.51,57.25l-1.03.59c.31-.2.65-.4,1.03-.59Z"/>
    <g>
      <line class="cls-2" x1="100.87" y1="139.68" x2="100.86" y2="143.24"/>
      <polygon class="cls-3" points="112.57 84.06 108.16 91.73 101.05 87.65 101 102.19 100.99 104.23 100.97 111.55 100.93 121.94 100.89 143.19 100.86 143.24 93.51 155.51 93.62 134.69 93.68 116.97 93.72 107.39 93.73 103.64 93.8 83.49 93.83 73.32 93.85 73.32 101.09 77.47 112.57 84.06"/>
      <polygon class="cls-3" points="93.85 73.32 93.83 73.32 93.83 73.31 93.85 73.32"/>
    </g>
    <polygon class="cls-3" points="62.71 83.56 62.7 83.57 62.7 83.56 62.71 83.56"/>
    <polygon class="cls-3" points="71.97 131.38 65.11 120.25 57.29 107.54 71.62 99.03 71.97 131.38"/>
    <line class="cls-1" x1="82.83" y1="48.5" x2="82.83" y2="48.43"/>
    <line class="cls-1" x1="59.01" y1="8.77" x2="58.87" y2="8.77"/>
    <path class="cls-3" d="m134.78,63.68s-.04.08-.09.15l.03-.06h0s.04-.06.06-.09Z"/>
  </g>
</svg>